{
    "asset" : {
        "copyright" : "NextLevel",
        "generator" : "Khronos glTF Blender I/O v1.5.17",
        "version" : "2.0"
    },
    "scene" : 0,
    "scenes" : [
        {
            "name" : "Scene",
            "nodes" : [
                0
            ]
        }
    ],
    "nodes" : [
        {
            "mesh" : 0,
            "name" : "MOCKUP_MASSA_DOCE.001",
            "rotation" : [
                -0.7071068286895752,
                0,
                0,
                -0.7071067094802856
            ],
            "translation" : [
                0.00080634537152946,
                0.028141126036643982,
                0.0007705979514867067
            ]
        }
    ],
    "materials" : [
        {
            "doubleSided" : true,
            "emissiveFactor" : [
                0.5,
                0.5,
                0.5
            ],
            "emissiveTexture" : {
                "index" : 0
            },
            "name" : "Burggeman_MassaDoce",
            "normalTexture" : {
                "index" : 1,
                "scale" : 0.75
            },
            "pbrMetallicRoughness" : {
                "baseColorTexture" : {
                    "index" : 2
                },
                "roughnessFactor" : 0.20000000298023224
            }
        },
        {
            "doubleSided" : true,
            "emissiveFactor" : [
                0.5,
                0.5,
                0.5
            ],
            "emissiveTexture" : {
                "index" : 3
            },
            "name" : "Metalico",
            "normalTexture" : {
                "index" : 4,
                "scale" : 0.75
            },
            "pbrMetallicRoughness" : {
                "baseColorTexture" : {
                    "index" : 5
                },
                "roughnessFactor" : 0
            }
        }
    ],
    "meshes" : [
        {
            "name" : "MOCKUP_MASSA_DOCE.004",
            "primitives" : [
                {
                    "attributes" : {
                        "POSITION" : 0,
                        "NORMAL" : 1,
                        "TEXCOORD_0" : 2
                    },
                    "indices" : 3,
                    "material" : 0
                },
                {
                    "attributes" : {
                        "POSITION" : 4,
                        "NORMAL" : 5,
                        "TEXCOORD_0" : 6
                    },
                    "indices" : 7,
                    "material" : 1
                }
            ]
        }
    ],
    "textures" : [
        {
            "sampler" : 0,
            "source" : 0
        },
        {
            "sampler" : 0,
            "source" : 1
        },
        {
            "sampler" : 0,
            "source" : 0
        },
        {
            "sampler" : 0,
            "source" : 0
        },
        {
            "sampler" : 0,
            "source" : 1
        },
        {
            "sampler" : 0,
            "source" : 0
        }
    ],
    "images" : [
        {
            "mimeType" : "image/png",
            "name" : "package_Mat Layer Stack_baseColor_Light",
            "uri" : "https://github.com/RafaelReis891/Web_Models/blob/eb1d319198208091471fbcff77d4cbe687a46491/package_Mat%20Layer%20Stack_baseColor_Light.png"
        },
        {
            "mimeType" : "image/png",
            "name" : "package_Mat Layer Stack_normal",
            "uri" : "https://github.com/RafaelReis891/Web_Models/blob/eb1d319198208091471fbcff77d4cbe687a46491/package_Mat%20Layer%20Stack_normal.png"
        }
    ],
    "accessors" : [
        {
            "bufferView" : 0,
            "componentType" : 5126,
            "count" : 41430,
            "max" : [
                0.046549391001462936,
                0.05366424843668938,
                0.10799060761928558
            ],
            "min" : [
                -0.04031220078468323,
                -0.06034568324685097,
                -0.10509619116783142
            ],
            "type" : "VEC3"
        },
        {
            "bufferView" : 1,
            "componentType" : 5126,
            "count" : 41430,
            "type" : "VEC3"
        },
        {
            "bufferView" : 2,
            "componentType" : 5126,
            "count" : 41430,
            "type" : "VEC2"
        },
        {
            "bufferView" : 3,
            "componentType" : 5123,
            "count" : 219756,
            "type" : "SCALAR"
        },
        {
            "bufferView" : 4,
            "componentType" : 5126,
            "count" : 2988,
            "max" : [
                0.0457986555993557,
                0.05330547317862511,
                0.053863275796175
            ],
            "min" : [
                -0.03990368917584419,
                -0.06022791191935539,
                0.03554053232073784
            ],
            "type" : "VEC3"
        },
        {
            "bufferView" : 5,
            "componentType" : 5126,
            "count" : 2988,
            "type" : "VEC3"
        },
        {
            "bufferView" : 6,
            "componentType" : 5126,
            "count" : 2988,
            "type" : "VEC2"
        },
        {
            "bufferView" : 7,
            "componentType" : 5123,
            "count" : 16068,
            "type" : "SCALAR"
        }
    ],
    "bufferViews" : [
        {
            "buffer" : 0,
            "byteLength" : 497160,
            "byteOffset" : 0
        },
        {
            "buffer" : 0,
            "byteLength" : 497160,
            "byteOffset" : 497160
        },
        {
            "buffer" : 0,
            "byteLength" : 331440,
            "byteOffset" : 994320
        },
        {
            "buffer" : 0,
            "byteLength" : 439512,
            "byteOffset" : 1325760
        },
        {
            "buffer" : 0,
            "byteLength" : 35856,
            "byteOffset" : 1765272
        },
        {
            "buffer" : 0,
            "byteLength" : 35856,
            "byteOffset" : 1801128
        },
        {
            "buffer" : 0,
            "byteLength" : 23904,
            "byteOffset" : 1836984
        },
        {
            "buffer" : 0,
            "byteLength" : 32136,
            "byteOffset" : 1860888
        }
    ],
    "samplers" : [
        {
            "magFilter" : 9729,
            "minFilter" : 9987
        }
    ],
    "buffers" : [
        {
            "byteLength" : 1893024,
            "uri" : "CaixaTeste_Luz.bin"
        }
    ]
}
